' Generated by UML Generator
' Encoded: lLfRSzis5dxth-2a3w4sacVpwibwwejSQ-fBQYcxRROx7ff2BDOKe0Aa4gNR_UrxSEK12DAAlDeNMmJE-N1mSAuWlnTLngjwMHw8fuAkCfujaxpCX3YfAbuyr1MPv8nEYwya-Ul1efYJ92zuNfA3W-n1L3pBAqsUd9Z7CxPSPdIU_76G9D_HR4cEaYaWqKVvF2SYvyMgAXZ5mxHUFX1---c4FugZfA0L38v6yETDW9fYm64IWHicBR2117earGtmfWEqhXmyRo3yEVA5vB3xD5CmUloV_mAIDIlcKcX3CA4LuJGhEmZ_F3ZG-ZahISQnSlwJix8akLpvEgFP8-57oLauv1I1sTDjE0Te4zlAEDRaKwKHJrPUKogNkLF_dLGnXjIdtKsEOilbY__XgZzmLg_EM4qhc3_Td2qoQNc4xt1QNL1xExbBKgwmnjxa-W6jWf-Te8WlxMVPIQf2L8nl0glVJZ2FTG-oJUWdjhix8kwzdUc42iAhbyY8-FScvNiOhouAKivbA2Lq3cG_5W2yYzzqW-rD_ZkoP6joGZSly_WOp9vb_e6Jx2N26lx_ZvG_airB1GM8FSiAA-pkRY74tcITPckoYvXTMHJXRINpC7bvhfqksEVTLOsuzwRb3wiv6DtkCdhy-wlOIh8ajBfXrGLK6oRt1uFfaWW12rYOGSD-NGj9TbENvVXBJbGPh35YCsqW8AoOVa3LStFAgYwyWnrn0Vp14bspFVB-FIiBK6iRApBH0_CFpkWZz0UrL9C6y8Q-UQEAsvpr-woIPuTW_Oc-uyWAm_S7j6LLaV-PB67esTOYj2I5CPhpx95HO9nnGgwprRih9lkZSpLydFmjeUIpcpjEvIP71Is-5g3BhsHMo4xh8wDaVWw6B1ybmQUY9Cw4Bve7EKV9bmhYtr4Y5mByjrTD-nAAc7O1ALrdytdwP96WprCY7ndHcnuC6ZY8Fo2TJ0qmN3BTknK21ZxGulUQD30m_y0Oj55KaWW8UZEcf81pMRZ3QB0XwSmlE5lsqSW6KcjPBk_fsQXPrUAoTqjzDX3mT3EPfyLSYptGGkg5PI8vtSXDOUajTwqYIp3VewG-m_NhQ6qtroS_trzEfhFRkr_kfvEFOzL4o-DyAsTD9Gvc9RTgc-wWJxVMTPc91RAkXIxgZvAVQbAJTnrCLmLz8lCheBLy8sCJXb2aZH01XgzaHp_mf0tNbTHbLjDyOSDrML0IQ_f7ZH0pPbeKAympibZgGTVkcqD1tg1F14M3rKhb3h6-LZ-DojoprfUZ5_c2B3D5FrK_WLvZ7Egf2yPJRJ27Qkt1uUUYMbo2wKiizG2kMo_fbCYx8TX1-dhuMa_yL3D8S53ifgzVcQ6noBEL6VlrrzVDuNtc1SGG9dUMnkEIyPTX8jtj1btpH5nImKJebCqqZZU2VGf6pnOaVqhrxwFalVe_i3-mAp0E_GQubj1Q_-AkeZREEMqqSwIffXecra_3UNlxzBCyUOttHiX7pUWRoIyfYWD2FhVT7ymDZa86BrOjT27XLckMw7DwhI6zIHj_LFpsR-l0rHsmjugQapKvX7EP6o9fGkKtYojM97i2J1o00RnakWfYAddajcko4SorKNBsIJM1xj2mZSkiCp6xa57Acwm5oANW9CcKLChOS7YIOpZCQ6eNbuU9V-NOfHEOyJJoMxRE3YlGng6dcs7YD3DCMdgHy8rMuAbJ9yF4ryW0YJxm2WYR8Y7Ne0pffdMoCOaei3H7157l6Of2JEOcuQACXl8jagVwW0v5sQSz5XUsaVk4bYVT0XDq7KYGRlKbmW1Pa0Gomu4kFKuj8lB9k2QYzyl23D9uE9DRHKOZUKD7Khl5D3r-voEVF990S3cYhAyj-jHOOXeKIMYcPQnXgWMBrQUb7LgVanp4DXqmkPkIGSph5KHpcTBf37t1qLL3MyH5VVmwBeQnS46AnqNLv06o8MT115ja1G_7g3eiAAYhZHojQSKtpMsNMYzufu4N6YR1CZ0TB2BZKtk90O8VlC0yBvKmWHsPGIoeppKsGeVcuCQ3NGLhsXs6xCr4g8JG3vr2D8JLkjvmCndLN8yjkV2mXIsTGOK3RX9qS--dRoqffA1Ne-FaLL2lPVfcPQf_c3nbdjBfHbHaULZG9bqvrfMyEYsfLxh68hMYIoj8cizIZJaS5UUCpvwXbdMPBPq7JTtSed7zTM1n7ShJldkdYj50aN3CfkKdymbTrLNA2IGVKJME16SdL6y9XRqyPrlzpw36N6jURK1KW53ytUnOjd3VkaeCISyTnpOcra2r9hngxOWz_0ODifWnMQjhitA5CgvhFGzstBbbch5R3PJcQgqArDrL8QCt3I0FXD9YRNH-MXTbM-bAewSw-gDyuC1ZwVv18jd2n8RZDaL_olTfRLnhb_3wFb87S7b72M9DWRCMNkMfN_W64-1fdx9I4DJYzhoYGWvhiF8dernp-CPpJpZFDhYL3IyJckjZ9Nlxii44jGiptehWRgBdcaAuLjZUlZppFWsrN3L5re4lCQ2TNQK-fRxHKvAi8fA4rtWiD33ZJCI_5sdLh9PC6rCiXKKyn39fc_b69jIjcTZV8i6jsbMNnAu4UsvhaRBhr9LTCJ-pZ5wnE8yMYQqQimtYYYuOgR6E8aLQcrlbQCDfyxDBv3sBzLPuswmShqmwJwEteEWM6CgOowuwffjhYy83LIeHfMxLydG5Jj_wEoz3khqiRLqlcb3kdDepAp_BDV7oulRk-cGs6zy1lo6zO7ofRiOXPBR63YVJs_kFjpVZy_lpazduVZQv7jkG-Lsk5saPgM_W8A3txSrezE_ZyAhEfs2ZKUJ5JlJZc2XO1-MnVV66Fs_f02XYV9qVg4H1EgdZsyDVa4JnCC5V58IN5ODlFU8G8SrnY8A_oeX2O8BuHlpF9Zf0C4aSfkUxXYXc3tryWUY71r7eA6KVgFqoe0VDacm18r_TFuyagVh0qBlr7Z145GV3Bx-ZE9XW6mZdNVYLT1mP4SIH_NV6KH2V90xJVfydwKoyRKzAPyHlue9tEf8tb0A_OJWyFBRX7r-1os6SJSobiVRywB01CIEItuXixbNGGfqD1-BgfS4Yz1AQ1Krd48bRJIqQulep1iWVDA9-3-vUByl_0W
' URL: http://www.plantuml.com/plantuml/uml/lLfRSzis5dxth-2a3w4sacVpwibwwejSQ-fBQYcxRROx7ff2BDOKe0Aa4gNR_UrxSEK12DAAlDeNMmJE-N1mSAuWlnTLngjwMHw8fuAkCfujaxpCX3YfAbuyr1MPv8nEYwya-Ul1efYJ92zuNfA3W-n1L3pBAqsUd9Z7CxPSPdIU_76G9D_HR4cEaYaWqKVvF2SYvyMgAXZ5mxHUFX1---c4FugZfA0L38v6yETDW9fYm64IWHicBR2117earGtmfWEqhXmyRo3yEVA5vB3xD5CmUloV_mAIDIlcKcX3CA4LuJGhEmZ_F3ZG-ZahISQnSlwJix8akLpvEgFP8-57oLauv1I1sTDjE0Te4zlAEDRaKwKHJrPUKogNkLF_dLGnXjIdtKsEOilbY__XgZzmLg_EM4qhc3_Td2qoQNc4xt1QNL1xExbBKgwmnjxa-W6jWf-Te8WlxMVPIQf2L8nl0glVJZ2FTG-oJUWdjhix8kwzdUc42iAhbyY8-FScvNiOhouAKivbA2Lq3cG_5W2yYzzqW-rD_ZkoP6joGZSly_WOp9vb_e6Jx2N26lx_ZvG_airB1GM8FSiAA-pkRY74tcITPckoYvXTMHJXRINpC7bvhfqksEVTLOsuzwRb3wiv6DtkCdhy-wlOIh8ajBfXrGLK6oRt1uFfaWW12rYOGSD-NGj9TbENvVXBJbGPh35YCsqW8AoOVa3LStFAgYwyWnrn0Vp14bspFVB-FIiBK6iRApBH0_CFpkWZz0UrL9C6y8Q-UQEAsvpr-woIPuTW_Oc-uyWAm_S7j6LLaV-PB67esTOYj2I5CPhpx95HO9nnGgwprRih9lkZSpLydFmjeUIpcpjEvIP71Is-5g3BhsHMo4xh8wDaVWw6B1ybmQUY9Cw4Bve7EKV9bmhYtr4Y5mByjrTD-nAAc7O1ALrdytdwP96WprCY7ndHcnuC6ZY8Fo2TJ0qmN3BTknK21ZxGulUQD30m_y0Oj55KaWW8UZEcf81pMRZ3QB0XwSmlE5lsqSW6KcjPBk_fsQXPrUAoTqjzDX3mT3EPfyLSYptGGkg5PI8vtSXDOUajTwqYIp3VewG-m_NhQ6qtroS_trzEfhFRkr_kfvEFOzL4o-DyAsTD9Gvc9RTgc-wWJxVMTPc91RAkXIxgZvAVQbAJTnrCLmLz8lCheBLy8sCJXb2aZH01XgzaHp_mf0tNbTHbLjDyOSDrML0IQ_f7ZH0pPbeKAympibZgGTVkcqD1tg1F14M3rKhb3h6-LZ-DojoprfUZ5_c2B3D5FrK_WLvZ7Egf2yPJRJ27Qkt1uUUYMbo2wKiizG2kMo_fbCYx8TX1-dhuMa_yL3D8S53ifgzVcQ6noBEL6VlrrzVDuNtc1SGG9dUMnkEIyPTX8jtj1btpH5nImKJebCqqZZU2VGf6pnOaVqhrxwFalVe_i3-mAp0E_GQubj1Q_-AkeZREEMqqSwIffXecra_3UNlxzBCyUOttHiX7pUWRoIyfYWD2FhVT7ymDZa86BrOjT27XLckMw7DwhI6zIHj_LFpsR-l0rHsmjugQapKvX7EP6o9fGkKtYojM97i2J1o00RnakWfYAddajcko4SorKNBsIJM1xj2mZSkiCp6xa57Acwm5oANW9CcKLChOS7YIOpZCQ6eNbuU9V-NOfHEOyJJoMxRE3YlGng6dcs7YD3DCMdgHy8rMuAbJ9yF4ryW0YJxm2WYR8Y7Ne0pffdMoCOaei3H7157l6Of2JEOcuQACXl8jagVwW0v5sQSz5XUsaVk4bYVT0XDq7KYGRlKbmW1Pa0Gomu4kFKuj8lB9k2QYzyl23D9uE9DRHKOZUKD7Khl5D3r-voEVF990S3cYhAyj-jHOOXeKIMYcPQnXgWMBrQUb7LgVanp4DXqmkPkIGSph5KHpcTBf37t1qLL3MyH5VVmwBeQnS46AnqNLv06o8MT115ja1G_7g3eiAAYhZHojQSKtpMsNMYzufu4N6YR1CZ0TB2BZKtk90O8VlC0yBvKmWHsPGIoeppKsGeVcuCQ3NGLhsXs6xCr4g8JG3vr2D8JLkjvmCndLN8yjkV2mXIsTGOK3RX9qS--dRoqffA1Ne-FaLL2lPVfcPQf_c3nbdjBfHbHaULZG9bqvrfMyEYsfLxh68hMYIoj8cizIZJaS5UUCpvwXbdMPBPq7JTtSed7zTM1n7ShJldkdYj50aN3CfkKdymbTrLNA2IGVKJME16SdL6y9XRqyPrlzpw36N6jURK1KW53ytUnOjd3VkaeCISyTnpOcra2r9hngxOWz_0ODifWnMQjhitA5CgvhFGzstBbbch5R3PJcQgqArDrL8QCt3I0FXD9YRNH-MXTbM-bAewSw-gDyuC1ZwVv18jd2n8RZDaL_olTfRLnhb_3wFb87S7b72M9DWRCMNkMfN_W64-1fdx9I4DJYzhoYGWvhiF8dernp-CPpJpZFDhYL3IyJckjZ9Nlxii44jGiptehWRgBdcaAuLjZUlZppFWsrN3L5re4lCQ2TNQK-fRxHKvAi8fA4rtWiD33ZJCI_5sdLh9PC6rCiXKKyn39fc_b69jIjcTZV8i6jsbMNnAu4UsvhaRBhr9LTCJ-pZ5wnE8yMYQqQimtYYYuOgR6E8aLQcrlbQCDfyxDBv3sBzLPuswmShqmwJwEteEWM6CgOowuwffjhYy83LIeHfMxLydG5Jj_wEoz3khqiRLqlcb3kdDepAp_BDV7oulRk-cGs6zy1lo6zO7ofRiOXPBR63YVJs_kFjpVZy_lpazduVZQv7jkG-Lsk5saPgM_W8A3txSrezE_ZyAhEfs2ZKUJ5JlJZc2XO1-MnVV66Fs_f02XYV9qVg4H1EgdZsyDVa4JnCC5V58IN5ODlFU8G8SrnY8A_oeX2O8BuHlpF9Zf0C4aSfkUxXYXc3tryWUY71r7eA6KVgFqoe0VDacm18r_TFuyagVh0qBlr7Z145GV3Bx-ZE9XW6mZdNVYLT1mP4SIH_NV6KH2V90xJVfydwKoyRKzAPyHlue9tEf8tb0A_OJWyFBRX7r-1os6SJSobiVRywB01CIEItuXixbNGGfqD1-BgfS4Yz1AQ1Krd48bRJIqQulep1iWVDA9-3-vUByl_0W
' Generated on: 2026-05-02T09:23:58.319676700

@startuml
skinparam classAttributeIconSize 0
hide circle

abstract class AbstractCommand {
  #name: String
  #description: String
  #numberOfArgs: int
  --
  +AbstractCommand(name: String, description: String, numberOfArgs: int)
  +getName(): String
  +getDescription(): String
  +execute(args: String[]): void
  #executeInternal(args: String[]): void
}

class ClearCommand {
  ~collectionManager: CollectionManager
  --
  +ClearCommand(collectionManager: CollectionManager)
  +executeInternal(args: String[]): void
}

class ExecuteScriptCommand {
  ~runner: Runner
  --
  +ExecuteScriptCommand(runner: Runner)
  +executeInternal(args: String[]): void
}

class ExitCommand {
  ~runner: Runner
  --
  +ExitCommand(runner: Runner)
  +executeInternal(args: String[]): void
}

class GroupCountingByCharacter {
  ~collectionManager: CollectionManager
  --
  +GroupCountingByCharacter(collectionManager: CollectionManager)
  +executeInternal(args: String[]): void
}

class HelpCommand {
  +commandManager: CommandManager
  --
  +HelpCommand(commandManager: CommandManager)
  +executeInternal(args: String[]): void
}

class HistoryCommand {
  ~commandManager: CommandManager
  --
  +HistoryCommand(commandManager: CommandManager)
  +executeInternal(args: String[]): void
}

class InfoCommand {
  ~collectionManager: CollectionManager
  --
  +InfoCommand(collectionManager: CollectionManager)
  +executeInternal(args: String[]): void
}

class InsertCommand {
  ~collectionManager: CollectionManager
  --
  +InsertCommand(collectionManager: CollectionManager)
  +executeInternal(args: String[]): void
}

class PrintFieldDescendingKiller {
  ~collectionManager: CollectionManager
  --
  +PrintFieldDescendingKiller(collectionManager: CollectionManager)
  +executeInternal(args: String[]): void
}

class RemoveAnyByCharacter {
  ~collectionManager: CollectionManager
  --
  +RemoveAnyByCharacter(collectionManager: CollectionManager)
  +executeInternal(args: String[]): void
}

class RemoveGreater {
  ~collectionManager: CollectionManager
  --
  +RemoveGreater(collectionManager: CollectionManager)
  +executeInternal(args: String[]): void
}

class RemoveGreaterKey {
  ~collectionManager: CollectionManager
  --
  +RemoveGreaterKey(collectionManager: CollectionManager)
  +executeInternal(args: String[]): void
}

class RemoveKeyCommand {
  ~collectionManager: CollectionManager
  --
  +RemoveKeyCommand(collectionManager: CollectionManager)
  +executeInternal(args: String[]): void
}

class SaveCommand {
  ~collectionManager: CollectionManager
  ~runner: Runner
  --
  +SaveCommand(collectionManager: CollectionManager, runner: Runner)
  +executeInternal(args: String[]): void
}

class ShowCommand {
  ~collectionManager: CollectionManager
  --
  +ShowCommand(collectionManager: CollectionManager)
  +executeInternal(args: String[]): void
}

class UpdateCommand {
  ~collectionManager: CollectionManager
  --
  +UpdateCommand(collectionManager: CollectionManager)
  +executeInternal(args: String[]): void
}

class ElementNotFound {
  +ElementNotFound(message: String)
}

class MustNotNullException {
  +MustNotNullException(message: String)
  +toString(): String
}

class ScriptRecursionException {
  +ScriptRecursionException(message: String)
}

class ValidationException {
  +ValidationException(message: String)
}

class WrongArgument {
  +WrongArgument(message: String)
  +toString(): String
}

class WrongCommandPattern {
  +WrongCommandPattern(message: String)
}

class Main {
  +{static} main(args: String[]): void
}

class CollectionManager {
  -dragons: TreeMap<Long, Dragon> = new TreeMap<>()
  -inizializeTime: ZonedDateTime
  -fileManager: FileManager
  -nextKey: Long = 1L
  --
  +CollectionManager(fileManager: FileManager)
  +add(key: Long, dragon: Dragon): void
  +generateKey(): long
  +isKeyUnique(key: Long): boolean
  +saveTo(filePath: String): void
  +readFrom(filePath: String): void
  +getDragons(): TreeMap<Long,Dragon>
  +clear(): void
  +getKeyById(id: long): Long
  +removeByKey(key: Long): void
  +updateByKey(key: Long, dragon: Dragon): void
  +toString(): String
}

class CommandManager {
  -MAX_HISTORY_SIZE: int = 11
  -commands: Map<String, AbstractCommand> = new HashMap<>()
  -history: Queue<AbstractCommand> = new LinkedList<>()
  --
  +addCommands(commands: AbstractCommand): void
  +getCommands(): Map<String,AbstractCommand>
  +launchCommand(line: String[]): void
  -addCommandToHistory(command: AbstractCommand): void
  +getHistory(): Queue<AbstractCommand>
}

class FileManager {
  -{static} mapper: CsvMapper = new CsvMapper()
  -{static} schema: CsvSchema = mapper.schemaFor(Dragon.class).withHeader().withColumnSeparator(',').withQuoteChar('"').withEscapeChar('\\')
  --
  +writeToFile(dragons: TreeMap<Long,Dragon>, fileName: String): void
  +readFromFile(fileName: String): List<Dragon>
  -personCheck(person: Person): Person
}

class Coordinates {
  -x: int
  -y: Long
  --
  +Coordinates(x: int, y: Long)
  +Coordinates()
  +getX(): int
  +setX(x: int): void
  +getY(): Long
  +setY(y: Long): void
  +compareTo(other: Coordinates): int
  +toString(): String
}

class Dragon {
  -id: long
  -name: String
  -coordinates: Coordinates
  -creationDate: ZonedDateTime
  -age: long
  -speaking: boolean
  -color: Color
  -character: DragonCharacter
  -killer: Person
  -{static} nextId: long = 1
  -{static} usedDragonId: Set<Long> = new HashSet<>()
  --
  +Dragon(id: long, name: String, coordinates: Coordinates, creationDate: java.time.ZonedDateTime, age: long, speaking: boolean, color: Color, character: DragonCharacter, killer: Person)
  +Dragon()
  +{static} generateId(): long
  +{static} removeId(id: Long): void
  +{static} addId(id: Long): void
  +{static} isIdUnique(id: long): boolean
  +{static} getUsedDragonId(): Set<Long>
  +getCoordinates(): Coordinates
  +setCoordinates(coordinates: Coordinates): void
  +getKiller(): Person
  +setKiller(killer: Person): void
  +getId(): Long
  +setId(id: Long): void
  +getName(): String
  +setName(name: String): void
  +getCreationDate(): ZonedDateTime
  +setCreationDate(creationDate: ZonedDateTime): void
  +getAge(): Long
  +setAge(age: Long): void
  +getSpeaking(): boolean
  +setSpeaking(speaking: boolean): void
  +getColor(): Color
  +setColor(color: Color): void
  +getCharacter(): DragonCharacter
  +setCharacter(character: DragonCharacter): void
  +compareTo(other: Dragon): int
  +toString(): String
}

class Person {
  -name: String
  -height: Long
  -eyeColor: Color
  -hairColor: Color
  -nationality: Country
  --
  +Person(name: String, height: Long, eyeColor: Color, hairColor: Color, nationality: Country)
  +Person()
  +getName(): String
  +setName(name: String): void
  +getHeight(): Long
  +setHeight(height: Long): void
  +getEyeColor(): Color
  +setEyeColor(eyeColor: Color): void
  +getHairColor(): Color
  +setHairColor(hairColor: Color): void
  +getNationality(): Country
  +setNationality(nationality: Country): void
  +compareTo(other: Person): int
  +toString(): String
}

class Console {
  +{static} PS1: String = "-> "
  -{static} scanner: Scanner = new Scanner(System.in)
  --
  +{static} println(line: String): void
  +{static} print(text: String): void
  +{static} printErr(errorText: String): void
  +{static} readCommand(): String[]
  +{static} readArgument(name: String): String
}

class ConsoleDragonReader {
  +{static} getValidatedInput(request: String, parser: Function<String,T>, validator: Consumer<T>): T
  +{static} getValidatedInput(request: String, validator: Consumer<String>): String
}

class CsvConverter {
  +{static} objectsToCsvString(dragons: List<Dragon>): String
  +{static} csvStringToObjects(csvContent: String): List<Dragon>
}

class InteractiveDragonBuilder {
  +{static} parseBoolean(speaking: String): boolean
  +{static} buildDragon(): Dragon
  +{static} buildCoordinates(): Coordinates
  +{static} buildPerson(): Person
}

class Runner {
  -runningStatus: boolean
  -scriptStatus: boolean = false
  -commandManager: CommandManager
  -{static} scriptStack: List<String> = new ArrayList<>()
  -filePath: String
  --
  +Runner(filePath: String)
  +getFilePath(): String
  +setFilePath(filePath: String): void
  +setCommandManager(commandManager: CommandManager): void
  +runInteractive(): void
  +stop(): void
  +runScript(filepath: String): void
}

class Validator {
  +{static} validateId(id: long): long
  +{static} validateDragonName(name: String): String
  +{static} validatePersonName(name: String): String
  +{static} validateX(x: int): int
  +{static} validateY(y: Long): Long
  +{static} validateAge(age: long): long
  +{static} validateSpeaking(speaking: Boolean): boolean
  +{static} validateCreationDate(date: ZonedDateTime): ZonedDateTime
  +{static} validateCharacter(value: String): DragonCharacter
  +{static} validateColor(value: Color): Color
  +{static} validateCharacter(character: DragonCharacter): DragonCharacter
  +{static} validateHeight(height: Long): Long
  +{static} validateHairColor(hairColor: Color): Color
  +{static} validateEyeHColor(eyeColor: Color): Color
  +{static} validateNationality(nationality: Country): Country
  +{static} validateCoordinates(coordinates: Coordinates): Coordinates
  +{static} validatePerson(person: Person): Person
  +{static} validateDragon(dragon: Dragon): Dragon
}

class ZonedDateTimeConverter {
  -{static} FORMATTER: DateTimeFormatter = DateTimeFormatter.ISO_ZONED_DATE_TIME
  --
  #convert(value: String): ZonedDateTime
}

ClearCommand --|> AbstractCommand
ClearCommand o-- CollectionManager
ExecuteScriptCommand --|> AbstractCommand
ExecuteScriptCommand --> Runner
ExitCommand --|> AbstractCommand
ExitCommand --> Runner
GroupCountingByCharacter --|> AbstractCommand
GroupCountingByCharacter o-- CollectionManager
HelpCommand --|> AbstractCommand
HelpCommand *-- CommandManager
HistoryCommand --|> AbstractCommand
HistoryCommand --> CommandManager
InfoCommand --|> AbstractCommand
InfoCommand o-- CollectionManager
InsertCommand --|> AbstractCommand
InsertCommand o-- CollectionManager
PrintFieldDescendingKiller --|> AbstractCommand
PrintFieldDescendingKiller o-- CollectionManager
RemoveAnyByCharacter --|> AbstractCommand
RemoveAnyByCharacter o-- CollectionManager
RemoveGreater --|> AbstractCommand
RemoveGreater o-- CollectionManager
RemoveGreaterKey --|> AbstractCommand
RemoveGreaterKey o-- CollectionManager
RemoveKeyCommand --|> AbstractCommand
RemoveKeyCommand o-- CollectionManager
SaveCommand --|> AbstractCommand
SaveCommand o-- CollectionManager
SaveCommand --> Runner
ShowCommand --|> AbstractCommand
ShowCommand o-- CollectionManager
UpdateCommand --|> AbstractCommand
UpdateCommand o-- CollectionManager
CollectionManager o-- Dragon
CollectionManager *-- FileManager
CommandManager o-- AbstractCommand
FileManager ..> Person
Coordinates ..> Coordinates
Dragon *-- Coordinates
Dragon *-- Person
Dragon ..> Dragon
Person ..> Person
InteractiveDragonBuilder ..> Dragon
InteractiveDragonBuilder ..> Coordinates
InteractiveDragonBuilder ..> Person
Runner *-- CommandManager
Validator ..> Coordinates
Validator ..> Person
Validator ..> Dragon
@enduml